Coordinates
version=1
nRows=29
nColumns=24
inDegrees=yes

Units are S.I. units (second, meters, Newtons, ...)
Angles are in degrees.

endheader
time	pelvis_tilt	pelvis_list	pelvis_rotation	pelvis_tx	pelvis_ty	pelvis_tz	hip_flexion_r	hip_adduction_r	hip_rotation_r	knee_angle_r	ankle_angle_r	subtalar_angle_r	mtp_angle_r	hip_flexion_l	hip_adduction_l	hip_rotation_l	knee_angle_l	ankle_angle_l	subtalar_angle_l	mtp_angle_l	lumbar_extension	lumbar_bending	lumbar_rotation
      3.04000000	    -12.56427702	     -5.56623628	     -1.54398490	     -1.37049242	     -0.01245009	      0.50289511	      7.70737496	     11.10602612	      8.10567650	     -8.50371014	      1.01488512	     -4.57096311	      2.06007030	     37.28087282	     -5.30742808	      2.83384391	    -46.00921128	     -3.70053586	      1.47536880	     18.27750490	      9.10581547	      5.89049636	      7.19834842
      3.04500000	    -12.55466764	     -5.32997757	     -1.67336289	     -1.36381432	     -0.01273686	      0.50315030	      7.17499994	     10.91576397	      8.42281723	     -8.36956883	      1.14395910	     -4.95757938	      1.62027407	     37.59614425	     -5.09094366	      2.74775347	    -44.53696694	     -3.38285110	      1.60660220	     17.37599978	      9.01907410	      5.66295180	      7.43339356
      3.05000000	    -12.64484132	     -5.07336482	     -1.86893485	     -1.35722046	     -0.01319351	      0.50342243	      6.78676546	     10.70812931	      8.80770663	     -8.29838948	      1.31138935	     -5.27802435	      1.38304537	     37.97902745	     -4.90114670	      2.60037776	    -42.96459291	     -3.29534237	      1.52022386	     16.78837642	      9.02524662	      5.43707785	      7.74520593
      3.05500000	    -12.67117580	     -4.80800172	     -2.04484956	     -1.35060941	     -0.01364944	      0.50370407	      6.32905674	     10.49234250	      9.20683669	     -8.22900413	      1.45391466	     -5.69755797	      1.04709778	     38.25227568	     -4.71875928	      2.42303546	    -41.33337495	     -3.16033267	      1.55212502	     16.08599629	      8.96580163	      5.19399847	      8.03240909
      3.06000000	    -12.67458426	     -4.55837999	     -2.19421673	     -1.34400773	     -0.01420397	      0.50400918	      5.86620283	     10.29918807	      9.56175525	     -8.20144284	      1.64686688	     -6.14995399	      0.60591079	     38.47573829	     -4.55960784	      2.23921375	    -39.67191715	     -2.93802272	      1.71427230	     15.23896154	      8.87666081	      4.94898596	      8.29493130
      3.06500000	    -12.75442639	     -4.30520154	     -2.38452542	     -1.33743035	     -0.01486691	      0.50429224	      5.50465843	     10.09722297	      9.94121114	     -8.20414215	      1.84621870	     -6.49104128	      0.30853686	     38.73770799	     -4.43449435	      2.00819585	    -37.92598377	     -2.89590829	      1.80584281	     14.59958192	      8.86969976	      4.72200589	      8.58188056
      3.07000000	    -12.74357440	     -4.05978383	     -2.52858286	     -1.33080233	     -0.01554951	      0.50460149	      5.04161959	      9.90556042	     10.28639883	     -8.21314837	      2.07301275	     -6.92181886	     -0.18848590	     38.86775945	     -4.31651700	      1.75124633	    -36.15084219	     -2.73297972	      2.04693218	     13.78943602	      8.76900947	      4.47831950	      8.81136517
      3.07500000	    -12.83162748	     -3.82201856	     -2.73530418	     -1.32425533	     -0.01637953	      0.50492035	      4.72242138	      9.72279659	     10.64535601	     -8.28163942	      2.32547353	     -7.21673901	     -0.46756099	     39.06853405	     -4.25150028	      1.45342391	    -34.31083916	     -2.78048770	      2.18362186	     13.22215166	      8.76151911	      4.26823566	      9.12768650
      3.08000000	    -12.86991957	     -3.58884066	     -2.92131338	     -1.31762972	     -0.01723585	      0.50525586	      4.33849100	      9.54089732	     10.98236434	     -8.33805001	      2.58047278	     -7.53661374	     -0.79920109	     39.17677881	     -4.19910336	      1.10740616	    -32.43353544	     -2.82049282	      2.38265235	     12.66013515	      8.71057237	      4.04999466	      9.40012117
      3.08500000	    -12.92176426	     -3.37726181	     -3.10743561	     -1.31097541	     -0.01817011	      0.50557446	      3.96938121	      9.37447268	     11.29187896	     -8.39591925	      2.84568548	     -7.78445449	     -1.09454690	     39.27542014	     -4.17956640	      0.71948297	    -30.53924950	     -2.92407096	      2.61066509	     12.15375359	      8.67721205	      3.85801048	      9.64889344
      3.09000000	    -12.92451655	     -3.17499155	     -3.29718866	     -1.30434243	     -0.01913934	      0.50593380	      3.56778015	      9.22068467	     11.56702820	     -8.49783023	      3.15909991	     -8.01750185	     -1.44132163	     39.29263142	     -4.17588431	      0.31892636	    -28.63574841	     -3.03033058	      2.86436100	     11.64947429	      8.58247268	      3.66293773	      9.93685567
      3.09500000	    -12.95615984	     -2.99753143	     -3.48942511	     -1.29765601	     -0.02019301	      0.50624871	      3.19153752	      9.08109874	     11.80856797	     -8.58965467	      3.47626580	     -8.15913639	     -1.71128966	     39.32586121	     -4.20219732	     -0.13567849	    -26.74168599	     -3.20504901	      3.13111147	     11.23220178	      8.52656712	      3.50419483	     10.19861382
      3.10000000	    -12.96809215	     -2.83112376	     -3.68639127	     -1.29092481	     -0.02128094	      0.50656544	      2.79435705	      8.94563333	     12.02503870	     -8.68698305	      3.80305093	     -8.24647275	     -1.94002671	     39.32152621	     -4.24261959	     -0.63704288	    -24.87028720	     -3.41063185	      3.40948452	     10.87840712	      8.44919941	      3.35421737	     10.46051059
      3.10500000	    -12.96459517	     -2.67956360	     -3.88074350	     -1.28415444	     -0.02240358	      0.50684253	      2.37917459	      8.81348496	     12.20358459	     -8.78193618	      4.13613268	     -8.27400217	     -2.11564113	     39.29354107	     -4.28914185	     -1.17117579	    -23.04089251	     -3.63773792	      3.70275401	     10.59042020	      8.36212749	      3.22050853	     10.72619509
      3.11000000	    -12.98426611	     -2.54302535	     -4.07836435	     -1.27733949	     -0.02359434	      0.50706171	      1.98570406	      8.68384828	     12.37037822	     -8.86966263	      4.45717389	     -8.24628684	     -2.18143324	     39.29610998	     -4.34290246	     -1.75128862	    -21.28136079	     -3.89148280	      4.00891230	     10.36224560	      8.30234892	      3.11067986	     10.96854182
      3.11500000	    -12.98530560	     -2.40566260	     -4.27965657	     -1.27045204	     -0.02481979	      0.50727334	      1.57698198	      8.54584431	     12.49929745	     -8.97128954	      4.79141657	     -8.18891795	     -2.17862026	     39.27575931	     -4.38499442	     -2.35141516	    -19.59469217	     -4.10302347	      4.31626724	     10.18706834	      8.23002122	      2.99439819	     11.19031275
      3.12000000	    -12.88422231	     -2.27823952	     -4.49012059	     -1.26355104	     -0.02593165	      0.50741547	      1.05544929	      8.39333990	     12.57144439	     -9.06167418	      5.12151572	     -8.02132303	     -2.14438329	     39.13718536	     -4.41654284	     -2.91557410	    -17.97925604	     -4.27759913	      4.63919718	     10.06742118	      8.04383298	      2.89289163	     11.50555103
      3.12500000	    -12.88765000	     -2.14836485	     -4.68315836	     -1.25656472	     -0.02720676	      0.50748807	      0.65114967	      8.23487009	     12.65562752	     -9.16480033	      5.43802189	     -7.86775458	     -2.02513645	     39.14318148	     -4.42069090	     -3.49152949	    -16.49876538	     -4.43635198	      4.94753391	      9.94173707	      7.98460794	      2.79435866	     11.70957572
      3.13000000	    -12.75474245	     -2.02355820	     -4.88008620	     -1.24955552	     -0.02833204	      0.50749198	      0.10015879	      8.05173170	     12.66995461	     -9.26050077	      5.76072365	     -7.58287077	     -1.81577861	     38.99175701	     -4.40288391	     -3.97216614	    -15.10563241	     -4.49443973	      5.29165669	      9.85683768	      7.77682282	      2.69639077	     12.00686103
      3.13500000	    -12.75287579	     -1.88104417	     -5.07965033	     -1.24246528	     -0.02962216	      0.50746386	     -0.29573634	      7.85649415	     12.72396444	     -9.38707051	      6.05687523	     -7.35727208	     -1.58973331	     39.00696449	     -4.35720479	     -4.42667459	    -13.85424612	     -4.53348466	      5.58391253	      9.73474488	      7.72742730	      2.59116631	     12.23321028
      3.14000000	    -12.66593497	     -1.74047410	     -5.28961735	     -1.23536039	     -0.03081506	      0.50739428	     -0.77325378	      7.64088204	     12.74205191	     -9.52674903	      6.36430662	     -7.01320451	     -1.27227185	     38.92703062	     -4.29874284	     -4.77705501	    -12.71353470	     -4.46661609	      5.91498947	      9.61585453	      7.58210651	      2.48531879	     12.51437602
      3.14500000	    -12.58951201	     -1.59008314	     -5.47797194	     -1.22819322	     -0.03202430	      0.50726885	     -1.23125554	      7.40725522	     12.73647059	     -9.67881490	      6.64334183	     -6.67147354	     -0.92502722	     38.86643616	     -4.20094227	     -5.00456264	    -11.69629885	     -4.35426995	      6.21236091	      9.45962068	      7.45971396	      2.36479159	     12.75597399
      3.15000000	    -12.51666768	     -1.43407395	     -5.66909782	     -1.22099843	     -0.03322633	      0.50711981	     -1.67027714	      7.16061565	     12.72776946	     -9.85525881	      6.90218986	     -6.30396125	     -0.53966855	     38.81081509	     -4.08836550	     -5.11726647	    -10.79848971	     -4.20035755	      6.49126364	      9.27129072	      7.34438341	      2.23871411	     13.00325719
      3.15500000	    -12.45714123	     -1.26488832	     -5.85006565	     -1.21374900	     -0.03442661	      0.50695276	     -2.08214165	      6.89630519	     12.70993518	    -10.05271849	      7.13111348	     -5.93471951	     -0.13383574	     38.76661200	     -3.95055121	     -5.11356342	    -10.01502913	     -4.02638769	      6.75493604	      9.05678059	      7.25356489	      2.09400465	     13.23701742
      3.16000000	    -12.42007880	     -1.08983254	     -6.02860016	     -1.20645516	     -0.03564018	      0.50677680	     -2.45484740	      6.62545428	     12.70297182	    -10.27838511	      7.32853240	     -5.58065514	      0.26807871	     38.74265675	     -3.80279296	     -4.99192699	     -9.34763876	     -3.84251188	      6.99123444	      8.84397142	      7.19518981	      1.94114335	     13.46947137
      3.16500000	    -12.36910016	     -0.90178692	     -6.16314928	     -1.19908070	     -0.03682940	      0.50658994	     -2.83370531	      6.33916367	     12.62446794	    -10.51235009	      7.46943735	     -5.25701242	      0.74238020	     38.69753629	     -3.61292342	     -4.74277035	     -8.79579957	     -3.63962924	      7.22070609	      8.55700378	      7.13409298	      1.75442258	     13.66595057
      3.17000000	    -12.42315597	     -0.72130899	     -6.37700163	     -1.19168092	     -0.03810012	      0.50651710	     -3.08039042	      6.07709019	     12.73891360	    -10.80614097	      7.60255084	     -4.96431748	      1.03380823	     38.75030476	     -3.49386009	     -4.48133406	     -8.34710633	     -3.49889146	      7.38996140	      8.46073189	      7.19411626	      1.59862813	     13.91929308
      3.17500000	    -12.44562652	     -0.51235824	     -6.54769307	     -1.18414729	     -0.03932900	      0.50641179	     -3.34819286	      5.77581578	     12.73586479	    -11.11991136	      7.73057255	     -4.59944069	      1.37007150	     38.76336105	     -3.31882387	     -4.16082021	     -8.02316454	     -3.34527626	      7.54911732	      8.37218833	      7.24027872	      1.39401792	     14.13217793
      3.18000000	    -12.48978196	     -0.30114878	     -6.71746025	     -1.17653743	     -0.04055686	      0.50633330	     -3.58238732	      5.47574722	     12.76042219	    -11.45840198	      7.80841612	     -4.26509219	      1.67197474	     38.79569822	     -3.14427344	     -3.79764306	     -7.82968465	     -3.22951814	      7.64841628	      8.29344851	      7.32111241	      1.18281232	     14.35059249
